<svg width="24" height="24" viewBox="0 0 24 24" fill="none" xmlns="http://www.w3.org/2000/svg">
<path d="M20.3468 4.42918C18.7822 3.71332 17.1206 3.19159 15.3862 2.90039C15.1679 3.27653 14.9253 3.78612 14.7555 4.18652C12.9108 3.91958 11.0793 3.91958 9.26006 4.18652C9.09025 3.78612 8.83554 3.27653 8.62935 2.90039C6.88287 3.19159 5.22126 3.71332 3.66761 4.42918C0.526326 9.0641 -0.322673 13.5898 0.101825 18.0549C2.18793 19.5715 4.20128 20.4937 6.17944 21.1004C6.66458 20.4452 7.10121 19.7414 7.4772 19.0013C6.76161 18.7344 6.08242 18.4067 5.42748 18.0185C5.59727 17.8972 5.76708 17.7637 5.92475 17.6302C9.87864 19.4381 14.1612 19.4381 18.0666 17.6302C18.2364 17.7637 18.3941 17.8972 18.5639 18.0185C17.9089 18.4067 17.2297 18.7344 16.5141 19.0013C16.8901 19.7414 17.3268 20.4452 17.8119 21.1004C19.7888 20.4937 21.8143 19.5715 23.8895 18.0549C24.4109 12.8861 23.0635 8.39682 20.3468 4.42918ZM8.02297 15.3006C6.83436 15.3006 5.86408 14.2208 5.86408 12.8983C5.86408 11.5757 6.81011 10.4958 8.02297 10.4958C9.22367 10.4958 10.2061 11.5757 10.1818 12.8983C10.1818 14.2208 9.22367 15.3006 8.02297 15.3006ZM15.9926 15.3006C14.804 15.3006 13.8325 14.2208 13.8325 12.8983C13.8325 11.5757 14.7797 10.4958 15.9926 10.4958C17.1934 10.4958 18.1757 11.5757 18.1515 12.8983C18.1515 14.2208 17.2055 15.3006 15.9926 15.3006Z" fill="#AEDF7C"/>
</svg>
