<svg width="24" height="20" viewBox="0 0 24 20" fill="none" xmlns="http://www.w3.org/2000/svg">
<path d="M20.3468 2.42918C18.7822 1.71332 17.1206 1.19159 15.3862 0.900391C15.1679 1.27653 14.9253 1.78612 14.7555 2.18652C12.9108 1.91958 11.0793 1.91958 9.26006 2.18652C9.09025 1.78612 8.83554 1.27653 8.62935 0.900391C6.88287 1.19159 5.22126 1.71332 3.66761 2.42918C0.526326 7.0641 -0.322673 11.5898 0.101825 16.0549C2.18793 17.5715 4.20128 18.4937 6.17944 19.1004C6.66458 18.4452 7.10121 17.7414 7.4772 17.0013C6.76161 16.7344 6.08242 16.4067 5.42748 16.0185C5.59727 15.8972 5.76708 15.7637 5.92475 15.6302C9.87864 17.4381 14.1612 17.4381 18.0666 15.6302C18.2364 15.7637 18.3941 15.8972 18.5639 16.0185C17.9089 16.4067 17.2297 16.7344 16.5141 17.0013C16.8901 17.7414 17.3268 18.4452 17.8119 19.1004C19.7888 18.4937 21.8143 17.5715 23.8895 16.0549C24.4109 10.8861 23.0635 6.39682 20.3468 2.42918ZM8.02297 13.3006C6.83436 13.3006 5.86408 12.2208 5.86408 10.8983C5.86408 9.57574 6.81011 8.49583 8.02297 8.49583C9.22367 8.49583 10.2061 9.57574 10.1818 10.8983C10.1818 12.2208 9.22367 13.3006 8.02297 13.3006ZM15.9926 13.3006C14.804 13.3006 13.8325 12.2208 13.8325 10.8983C13.8325 9.57574 14.7797 8.49583 15.9926 8.49583C17.1934 8.49583 18.1757 9.57574 18.1515 10.8983C18.1515 12.2208 17.2055 13.3006 15.9926 13.3006Z" fill="#F2F2F2"/>
</svg>
