<svg width="40" height="30" viewBox="0 0 40 30" fill="none" xmlns="http://www.w3.org/2000/svg">
<path d="M7.50325 11.5794C6.49284 10.128 5.98589 8.46137 5.98589 6.57248C5.98589 4.25998 6.79492 2.26346 8.41645 0.579427C3.80534 4.07943 0.826172 9.61762 0.826172 15.8537C0.826172 21.0933 2.93034 25.8364 6.33312 29.2982C5.347 27.5551 4.847 25.6211 4.847 23.4926C4.847 21.319 5.35395 19.4753 6.36437 17.9648C7.37478 16.4544 8.93728 15.2878 11.0449 14.4614C9.42687 13.6003 8.24631 12.6419 7.50325 11.5794Z" fill="#6A64FF"/>
<path d="M19.8991 17.5239C18.6178 17.5239 17.4998 18.0308 16.5484 19.0412C15.597 20.0517 15.1178 21.4197 15.1178 23.1385C15.1178 24.7739 15.6144 26.1107 16.6109 27.1489C17.6039 28.1871 18.7428 28.7044 20.0241 28.7044C21.2533 28.7044 22.3609 28.1767 23.3366 27.1246C24.3158 26.0725 24.8019 24.7357 24.8019 23.1142C24.8019 21.4787 24.3088 20.1385 23.3227 19.0933C22.3401 18.0447 21.1977 17.5239 19.8991 17.5239Z" fill="#6A64FF"/>
<path d="M33.3991 29.5621C36.9616 26.0794 39.1734 21.2253 39.1734 15.8537C39.1734 9.53082 36.1109 3.92318 31.3921 0.433594C33.0831 2.15929 33.9408 4.22526 33.9408 6.64887C33.9408 8.31901 33.4685 9.87804 32.5241 11.3294C31.8158 12.4093 30.7046 13.4544 29.1838 14.4648C31.1908 15.4267 32.6873 16.701 33.6734 18.2843C34.6595 19.8711 35.1526 21.6246 35.1526 23.5447C35.1526 25.3989 34.7255 27.1315 33.8748 28.7426C33.722 29.0273 33.5623 29.2982 33.3991 29.5621Z" fill="#6A64FF"/>
<path d="M20.0762 11.451C21.2567 11.451 22.2255 11.0621 22.9859 10.2878C23.7463 9.51345 24.1248 8.50998 24.1248 7.27734C24.1248 5.99609 23.7289 4.95443 22.9373 4.15234C22.1456 3.35026 21.1317 2.95095 19.9026 2.95095C18.656 2.95095 17.6387 3.34332 16.8539 4.12804C16.0692 4.91276 15.6769 5.92665 15.6769 7.17665C15.6769 8.4579 16.0762 9.49262 16.8783 10.2739C17.6769 11.0586 18.7428 11.451 20.0762 11.451Z" fill="#6A64FF"/>
</svg>
