<svg width="280" height="49" viewBox="0 0 280 49" fill="none" xmlns="http://www.w3.org/2000/svg">
<g clip-path="url(#clip0_183_8951)">
<path d="M55.8584 16.9102V16.1815C57.3475 16.2264 58.5271 16.2478 59.395 16.2478C59.9743 16.2478 60.5893 16.2414 61.2417 16.2264L62.9903 16.1687C63.1806 16.1623 63.3605 16.1602 63.5215 16.1602C64.7031 16.1602 65.6295 16.2905 66.303 16.5576C66.9807 16.8226 67.5057 17.2436 67.8842 17.8247C68.2627 18.4038 68.453 19.0662 68.453 19.8075C68.453 20.4743 68.294 21.1388 67.9783 21.7969C67.6625 22.4571 67.2065 23.0127 66.6041 23.4721C66.0039 23.9315 65.3786 24.2605 64.724 24.4572C64.2806 24.5917 63.7766 24.6624 63.2118 24.6624C62.735 24.6624 62.2247 24.6089 61.6768 24.5043L61.4425 23.6516C62.1035 23.8011 62.6199 23.8781 63.0006 23.8781C63.5569 23.8781 64.0841 23.7392 64.586 23.4636C65.088 23.1901 65.4749 22.7713 65.7529 22.2157C66.0333 21.658 66.1712 21.0469 66.1712 20.3718C66.1712 19.7201 66.0353 19.1346 65.7655 18.6046C65.4936 18.0811 65.0838 17.6816 64.5295 17.408C63.9774 17.1367 63.3081 16.9998 62.5218 16.9998C61.8169 16.9998 61.0598 17.1302 60.2526 17.3888C60.1855 18.1901 60.1521 19.4486 60.1521 21.1602V26.8888C60.1521 27.9209 60.1626 28.9251 60.1855 29.9016C60.2086 30.6218 60.2609 31.0491 60.3467 31.1859C60.4323 31.3226 60.5684 31.4251 60.7565 31.4914C60.9469 31.5533 61.4823 31.5918 62.367 31.6089V32.3354C60.9949 32.2756 59.9849 32.2436 59.3407 32.2436C59.0875 32.2436 57.9268 32.2756 55.8584 32.3354V31.6089C56.7305 31.5918 57.2659 31.5533 57.4583 31.4914C57.6508 31.4251 57.7845 31.3354 57.8599 31.2221C57.9477 31.0705 58.0042 30.7029 58.0251 30.1196C58.0357 29.9594 58.0482 28.8823 58.0711 26.8888V21.626C58.0711 20.5961 58.0607 19.5875 58.0377 18.6046C58.0146 17.8824 57.9603 17.4572 57.8745 17.3247C57.7909 17.1922 57.6528 17.0918 57.4647 17.0299C57.2764 16.9636 56.7389 16.9251 55.8584 16.9102Z" fill="#F2F2F2"/>
<path d="M72.2549 16.9102V16.1815C72.5435 16.19 72.9849 16.2007 73.5788 16.2157L75.7162 16.2713C76.1366 16.2713 76.7933 16.2585 77.6843 16.2264C78.8429 16.1815 79.5122 16.1602 79.6984 16.1602C81.1121 16.1602 82.1474 16.2884 82.7958 16.5469C83.444 16.8034 83.9481 17.2222 84.3037 17.8033C84.6614 18.3824 84.837 19.0127 84.837 19.6943C84.837 20.3332 84.6718 20.9657 84.3372 21.5917C84.0046 22.2221 83.5214 22.7434 82.8877 23.1601C82.252 23.5789 81.4259 23.8995 80.4094 24.1282C80.5956 24.3931 81.0327 24.985 81.7229 25.9017L84.5275 29.6773C85.3263 30.7286 85.7948 31.3141 85.9288 31.4358C85.9956 31.4914 86.0625 31.5277 86.1296 31.5511C86.2404 31.5875 86.485 31.6089 86.8636 31.6089V32.3354C86.2989 32.2905 85.8074 32.2669 85.3829 32.2669C84.9458 32.2669 84.4103 32.2905 83.7704 32.3354C83.2872 31.767 82.4799 30.6558 81.3443 29.0042C80.7148 28.0875 80.1584 27.3226 79.6774 26.7071C78.8974 25.6922 78.1548 24.7734 77.4521 23.9465L77.563 23.6046C77.9478 23.6282 78.2406 23.6409 78.4414 23.6409C79.7904 23.6409 80.8151 23.314 81.5117 22.6601C82.2101 22.0084 82.5574 21.1495 82.5574 20.0811C82.5574 19.1495 82.2562 18.4101 81.656 17.8589C81.0557 17.3097 80.1459 17.0341 78.9308 17.0341C78.1654 17.0341 77.4166 17.1516 76.6825 17.3888C76.6532 17.7948 76.6302 18.1816 76.6156 18.5341C76.6072 18.641 76.5822 19.7434 76.5382 21.8418V26.8888C76.5382 27.9209 76.5529 28.9251 76.5822 29.9016C76.5967 30.6218 76.6469 31.0491 76.7348 31.1859C76.8184 31.3226 76.9565 31.4251 77.1488 31.4914C77.3434 31.5533 77.8766 31.5918 78.7509 31.6089V32.3354C77.6989 32.2756 76.7306 32.2436 75.8502 32.2436C75.1369 32.2436 73.9386 32.2756 72.2549 32.3354V31.6089C73.1292 31.5918 73.6625 31.5533 73.857 31.4914C74.0494 31.4251 74.1832 31.3354 74.2586 31.2221C74.3464 31.0705 74.4007 30.7029 74.4238 30.1196C74.43 29.9594 74.4467 28.8823 74.4676 26.8888V21.626C74.4676 20.5961 74.4592 19.5875 74.4363 18.6046C74.4133 17.8824 74.3589 17.4572 74.2731 17.3247C74.1895 17.1922 74.0514 17.0918 73.8612 17.0299C73.6729 16.9636 73.1375 16.9251 72.2549 16.9102Z" fill="#F2F2F2"/>
<path d="M92.5681 23.4231C92.5681 24.1431 92.6392 24.8761 92.7793 25.6153C92.9194 26.359 93.0972 27 93.3127 27.5384C93.6703 28.4487 94.1325 29.2116 94.7076 29.8291C95.2828 30.4466 95.9248 30.9016 96.6338 31.1944C97.3428 31.4851 98.1272 31.6303 98.9867 31.6303C100.183 31.6303 101.22 31.3333 102.103 30.7392C102.985 30.1431 103.644 29.3077 104.077 28.2265C104.512 27.1474 104.728 25.9017 104.728 24.4935C104.728 23.2863 104.573 22.1772 104.261 21.1603C104.067 20.5384 103.814 19.9765 103.494 19.4744C103.176 18.9679 102.793 18.5299 102.354 18.1538C101.913 17.7798 101.34 17.4615 100.635 17.2029C99.9279 16.9486 99.1707 16.8183 98.3509 16.8183C97.1735 16.8183 96.1382 17.0875 95.2493 17.6261C94.3583 18.1644 93.689 18.9422 93.2415 19.9615C92.7919 20.9786 92.5681 22.1345 92.5681 23.4231ZM90.2529 24.3653C90.2529 23.1688 90.4285 22.064 90.7799 21.0469C91.1334 20.0319 91.7169 19.1175 92.5345 18.3077C93.3503 17.4979 94.2726 16.8845 95.3037 16.4722C96.3348 16.0577 97.5164 15.8525 98.8445 15.8525C100.068 15.8525 101.179 16.0298 102.182 16.3802C103.182 16.7328 104.004 17.1987 104.646 17.7798C105.288 18.3589 105.792 18.9936 106.164 19.6837C106.447 20.1965 106.671 20.8055 106.836 21.5C107.003 22.1986 107.089 22.9465 107.089 23.7414C107.089 26.297 106.248 28.421 104.567 30.1175C102.885 31.8141 100.769 32.6645 98.2086 32.6645C97.0437 32.6645 95.9583 32.4722 94.9481 32.0854C93.94 31.6987 93.0868 31.1238 92.3902 30.3632C91.6918 29.6004 91.1605 28.6774 90.7987 27.5876C90.4348 26.502 90.2529 25.4273 90.2529 24.3653Z" fill="#F2F2F2"/>
<path d="M110.091 36.7009L110.122 35.9166V35.7563C110.122 35.5812 110.112 35.312 110.091 34.9509L110.302 34.8013C110.515 34.9616 110.716 35.0726 110.896 35.1389C111.078 35.2008 111.281 35.2328 111.502 35.2328C111.904 35.2328 112.212 35.1539 112.427 34.9893C112.64 34.8269 112.799 34.5726 112.893 34.2286C112.992 33.8847 113.04 32.9744 113.04 31.5063V21.6261C113.04 20.5961 113.023 19.5876 112.996 18.6047C112.979 17.8825 112.931 17.4572 112.845 17.3248C112.759 17.1923 112.619 17.0919 112.427 17.0298C112.232 16.9637 111.699 16.9252 110.825 16.9103V16.1816C111.996 16.2286 113.094 16.2479 114.119 16.2479C115.2 16.2479 116.302 16.2286 117.423 16.1816V16.9103C116.547 16.9252 116.012 16.9637 115.819 17.0298C115.627 17.0919 115.497 17.1816 115.43 17.2969C115.334 17.4487 115.276 17.8141 115.252 18.3995C115.252 18.5491 115.238 19.626 115.209 21.6261V29.7906C115.209 31.0321 115.106 32.0128 114.897 32.735C114.69 33.4551 114.341 34.1367 113.845 34.7841C113.351 35.4317 112.816 35.9231 112.237 36.2585C111.657 36.5919 111.099 36.7585 110.559 36.7585C110.411 36.7585 110.254 36.7371 110.091 36.7009Z" fill="#F2F2F2"/>
<path d="M121.469 32.3354V31.6174C122.247 31.611 122.762 31.5511 123.004 31.4358C123.107 31.391 123.182 31.3204 123.226 31.2221C123.302 31.0705 123.354 30.673 123.383 30.0277C123.427 29.0277 123.45 28.1623 123.45 27.4358V21.626C123.45 20.5961 123.44 19.5875 123.419 18.6046C123.396 17.8824 123.341 17.4572 123.255 17.3247C123.17 17.1922 123.032 17.094 122.843 17.0299C122.653 16.9636 122.118 16.923 121.237 16.9102V16.1815L124.406 16.2478L127.767 16.1922C129.375 16.1708 130.544 16.1602 131.272 16.1602C132.006 16.1602 132.7 16.2007 133.353 16.2842C133.234 16.7135 133.152 17.0918 133.108 17.4102C133.094 17.4786 133.025 18.267 132.907 19.7735H132.207C132.215 19.0021 132.165 18.2969 132.06 17.6602C131.655 17.4871 131.205 17.3696 130.714 17.3077C129.883 17.2008 129.055 17.1494 128.223 17.1494C128.045 17.1494 127.648 17.1623 127.033 17.1943C126.418 17.2242 125.976 17.2499 125.709 17.2734C125.679 18.1153 125.656 18.9016 125.642 19.6366L125.596 23.4806C126.466 23.5255 127.263 23.5491 127.99 23.5491C128.871 23.5491 129.626 23.5063 130.249 23.423C130.486 23.3931 130.636 23.3332 130.705 23.2392C130.77 23.1516 130.831 22.8396 130.883 22.3097L130.95 21.5128H131.617V21.7286L131.561 24.0918L131.617 26.7435H130.837L130.806 25.97C130.789 25.4102 130.741 25.0598 130.653 24.9251C130.571 24.7862 130.408 24.6922 130.17 24.641C129.747 24.549 128.927 24.5021 127.71 24.5021C127.215 24.5021 126.51 24.5235 125.596 24.5619C125.56 25.3182 125.541 26.4444 125.541 27.9358C125.541 29.3397 125.56 30.4038 125.596 31.1303C126.667 31.2136 127.865 31.2563 129.191 31.2563C130.132 31.2563 130.806 31.2264 131.205 31.1645C131.607 31.1046 131.977 30.9999 132.32 30.8568C132.408 30.6218 132.496 30.3033 132.585 29.9016C132.746 29.2285 132.855 28.7201 132.907 28.3803H133.641C133.449 29.9101 133.353 31.1815 133.353 32.188C132.715 32.2863 131.937 32.3354 131.025 32.3354L124.383 32.2436C124.289 32.2436 123.316 32.2756 121.469 32.3354Z" fill="#F2F2F2"/>
<path d="M152.854 30.3225L152.421 31.3824C151.553 31.8269 150.704 32.1516 149.874 32.3525C149.043 32.5534 148.138 32.6538 147.159 32.6538C146.009 32.6538 144.94 32.5064 143.953 32.2094C142.968 31.9166 142.104 31.4936 141.368 30.9422C140.627 30.3931 140.027 29.7776 139.559 29.094C139.09 28.4123 138.737 27.6751 138.492 26.8738C138.247 26.0747 138.124 25.1966 138.124 24.2414C138.124 21.8227 138.95 19.8226 140.6 18.235C142.25 16.6473 144.503 15.8525 147.36 15.8525C148.033 15.8525 148.659 15.8909 149.232 15.9722C149.809 16.0512 150.51 16.2008 151.338 16.4273C152.164 16.6495 152.67 16.7799 152.854 16.8183C152.693 17.2349 152.57 17.6453 152.488 18.0447C152.371 18.6923 152.287 19.4358 152.243 20.2863H151.543L151.532 18.9422C151.457 18.203 151.055 17.6494 150.326 17.2842C149.594 16.9209 148.525 16.7393 147.115 16.7393C146.061 16.7542 145.166 16.8931 144.432 17.1538C143.698 17.4166 143.049 17.8269 142.491 18.3931C141.93 18.9572 141.473 19.673 141.117 20.5406C140.759 21.4102 140.579 22.4999 140.571 23.8097C140.571 26.1067 141.259 27.9529 142.629 29.3504C144.003 30.7499 145.814 31.4508 148.071 31.4508C149.087 31.4508 150.029 31.3054 150.899 31.015C151.49 30.8183 152.08 30.5085 152.666 30.0855" fill="#F2F2F2"/>
<path d="M157.504 19.9443H156.814C156.807 18.1324 156.767 16.8802 156.702 16.1836C157.51 16.2115 158.78 16.2499 160.509 16.2969C161.91 16.3247 162.842 16.3397 163.311 16.3397C163.815 16.3397 164.985 16.3205 166.817 16.2712C168.142 16.2413 169.111 16.2115 169.72 16.1836C169.631 17.032 169.571 18.2841 169.545 19.9443H168.831L168.741 18.8546C168.682 18.1943 168.642 17.8204 168.619 17.7286C168.597 17.6346 168.565 17.5725 168.523 17.5341C168.484 17.4977 168.421 17.4657 168.342 17.4423C168.236 17.4229 167.866 17.3909 167.228 17.3525C166.591 17.3141 166.087 17.2969 165.714 17.2969H164.357C164.284 18.0212 164.244 19.0041 164.244 20.2371V26.891C164.244 27.9208 164.257 28.9251 164.279 29.9017C164.301 30.6217 164.355 31.0512 164.44 31.1879C164.524 31.3247 164.663 31.423 164.854 31.4892C165.042 31.5512 165.578 31.5939 166.461 31.6068V32.3354C165.134 32.2733 164.134 32.2456 163.468 32.2456C163.177 32.2456 162.02 32.2733 159.997 32.3354V31.6068C160.878 31.5939 161.416 31.5512 161.608 31.4892C161.802 31.423 161.934 31.3353 162 31.2221C162.095 31.0704 162.153 30.7008 162.175 30.1195C162.175 29.9615 162.192 28.8824 162.222 26.891V20.2648C162.222 19.9443 162.214 19.5939 162.198 19.2178L162.133 17.2969H160.474C159.515 17.2969 158.757 17.3333 158.193 17.4102C158.013 17.4316 157.9 17.4828 157.848 17.5576C157.767 17.688 157.695 18.0982 157.626 18.797" fill="#F2F2F2"/>
<path d="M182.624 16.9103V16.1816C183.404 16.2115 184.149 16.2265 184.86 16.2265C185.58 16.2265 186.27 16.2115 186.931 16.1816C187.583 17.6988 188.182 19.0277 188.722 20.1731L192.94 29.0385L196.744 20.9124C197.783 18.6987 198.478 17.1218 198.823 16.1816C199.611 16.2115 200.274 16.2265 200.816 16.2265C201.311 16.2265 202.119 16.2115 203.231 16.1816V16.9103C202.348 16.9252 201.814 16.9637 201.625 17.0298C201.435 17.0919 201.303 17.1816 201.227 17.2969C201.131 17.4487 201.076 17.8141 201.06 18.3995C201.054 18.5513 201.035 19.626 201.004 21.6261V26.8889C201.004 27.9209 201.022 28.9252 201.052 29.9017C201.071 30.6217 201.125 31.0491 201.21 31.1858C201.297 31.3227 201.435 31.4252 201.625 31.4915C201.814 31.5534 202.348 31.5918 203.231 31.609V32.3355C201.734 32.2671 200.673 32.2328 200.059 32.2328C199.563 32.2328 198.465 32.2671 196.767 32.3355V31.609C197.65 31.5918 198.185 31.5534 198.379 31.4915C198.572 31.4252 198.701 31.3354 198.769 31.2222C198.866 31.0705 198.921 30.703 198.936 30.1196C198.944 29.9593 198.961 28.8824 198.992 26.8889V18.5448L195.152 26.7543C194.552 28.0362 194.081 29.0662 193.739 29.8462C193.496 30.4146 193.124 31.314 192.626 32.5513H192.194C192.096 32.2649 192.009 32.032 191.926 31.8569L191.169 30.2094L185.849 18.9209V26.8889C185.849 27.9209 185.866 28.9252 185.895 29.9017C185.917 30.6217 185.971 31.0491 186.056 31.1858C186.143 31.3227 186.278 31.4252 186.471 31.4915C186.659 31.5534 187.193 31.5918 188.077 31.609V32.3355L185.395 32.2435L182.624 32.3355V31.609C183.499 31.5918 184.031 31.5534 184.226 31.4915C184.418 31.4252 184.553 31.3354 184.627 31.2222C184.716 31.0705 184.773 30.703 184.793 30.1196C184.802 29.9593 184.816 28.8824 184.838 26.8889V21.6261C184.838 20.5961 184.827 19.5876 184.805 18.6047C184.782 17.8825 184.728 17.4572 184.643 17.3248C184.559 17.1923 184.422 17.0919 184.233 17.0298C184.045 16.9637 183.507 16.9252 182.624 16.9103Z" fill="#F2F2F2"/>
<path d="M216.817 31.6068V32.3355C215.238 32.2756 214.201 32.2435 213.702 32.2435L210.267 32.3355V31.6068C211.138 31.5918 211.674 31.5534 211.866 31.4893C212.058 31.4252 212.193 31.3354 212.265 31.2222C212.357 31.0705 212.412 30.703 212.434 30.1196C212.442 29.9593 212.454 28.8824 212.481 26.8889V21.6261C212.481 20.5961 212.467 19.5876 212.445 18.6047C212.425 17.8825 212.371 17.4594 212.284 17.3248C212.199 17.1923 212.061 17.0919 211.872 17.0298C211.682 16.9637 211.149 16.9252 210.267 16.9103V16.1816C211.68 16.2351 212.776 16.2628 213.546 16.2628C214.287 16.2628 215.379 16.2351 216.817 16.1816V16.9103C215.936 16.9252 215.401 16.9637 215.21 17.0298C215.021 17.0919 214.888 17.1838 214.815 17.2969C214.727 17.4487 214.671 17.8141 214.65 18.3995C214.639 18.5513 214.626 19.626 214.603 21.6261V26.8889C214.603 27.9209 214.614 28.9252 214.637 29.9017C214.66 30.6217 214.713 31.0513 214.8 31.1858C214.883 31.3227 215.021 31.4252 215.21 31.4893C215.401 31.5534 215.936 31.5918 216.817 31.6068Z" fill="#F2F2F2"/>
<path d="M228.409 31.0961C229.225 31.2414 230.089 31.3119 230.993 31.3119C231.925 31.3119 232.748 31.2308 233.467 31.064C234.182 30.8952 234.795 30.6602 235.303 30.3547C235.811 30.0534 236.303 29.6088 236.775 29.017C237.252 28.4251 237.618 27.6687 237.873 26.7477C238.128 25.8269 238.258 24.8739 238.258 23.8888C238.258 22.4785 238.011 21.2692 237.515 20.2584C237.021 19.2456 236.28 18.47 235.286 17.9337C234.29 17.3951 232.925 17.1239 231.191 17.1239C230.279 17.1239 229.353 17.1987 228.409 17.3417C228.385 17.7115 228.37 18.3739 228.354 19.3182L228.31 20.9679V25.5042L228.342 29.0299C228.348 29.5661 228.373 30.2542 228.409 31.0961ZM224.961 32.3354V31.7905C225.391 31.5404 225.749 31.3119 226.04 31.1067C226.082 30.5917 226.122 29.8781 226.15 28.9593C226.202 27.3974 226.227 26.314 226.227 25.7072V21.0704C226.227 20.3269 226.206 19.455 226.161 18.4572C226.131 17.8247 226.079 17.4337 226.006 17.2841C225.953 17.188 225.876 17.1132 225.772 17.0705C225.526 16.9636 225.02 16.9037 224.247 16.8995V16.1815C225.331 16.2286 226.289 16.2478 227.119 16.2478C227.757 16.2478 228.627 16.2371 229.726 16.2029C230.827 16.173 231.685 16.1602 232.293 16.1602C234.108 16.1602 235.571 16.3974 236.679 16.8696C237.782 17.3439 238.72 18.1367 239.492 19.25C240.263 20.3653 240.649 21.7265 240.649 23.3332C240.649 24.4849 240.465 25.5661 240.102 26.5726C239.74 27.579 239.248 28.4593 238.622 29.2157C238 29.9679 237.333 30.5662 236.62 31.0042C235.907 31.4465 235.16 31.7777 234.38 31.9998C233.598 32.2242 232.524 32.3354 231.157 32.3354C230.706 32.3354 230.093 32.3183 229.321 32.2926C228.313 32.2584 227.652 32.2436 227.342 32.2436C226.888 32.2436 226.094 32.2756 224.961 32.3354Z" fill="#F2F2F2"/>
<path d="M250.652 25.9573H256.269L253.488 19.1048L250.652 25.9573ZM245.478 32.3356V31.5642C246.063 31.5557 246.428 31.5321 246.574 31.4894C246.719 31.4467 246.849 31.3675 246.973 31.2522C247.095 31.1325 247.272 30.8292 247.5 30.3355C247.634 30.0534 248.117 28.9915 248.949 27.1411L251.731 20.7287C252.034 20.0258 252.683 18.4552 253.678 16.0215H254.4L259.151 27.4254C259.921 29.2735 260.435 30.4317 260.686 30.9018C260.827 31.1667 260.983 31.344 261.149 31.4253C261.314 31.5086 261.692 31.5557 262.277 31.5642V32.3356C261.121 32.2586 260.311 32.2223 259.851 32.2223L256.269 32.3356V31.5642C257.097 31.545 257.605 31.5215 257.783 31.4829C257.961 31.4445 258.082 31.3911 258.145 31.3163C258.207 31.2458 258.24 31.156 258.24 31.0514C258.24 30.8846 258.185 30.6667 258.085 30.4018L256.715 26.9252H250.272L249.06 29.8441C248.842 30.3698 248.735 30.7522 248.735 30.9936C248.735 31.1005 248.764 31.1881 248.828 31.2565C248.907 31.3527 249.032 31.4231 249.204 31.4615C249.478 31.5215 249.961 31.5557 250.652 31.5642V32.3356C249.396 32.2672 248.458 32.2329 247.834 32.2329C247.116 32.2329 246.331 32.2672 245.478 32.3356Z" fill="#F2F2F2"/>
<path d="M268.261 31.7777C268.38 31.0512 268.448 29.8718 268.471 28.2413H269.228C269.265 29.3505 269.329 30.002 269.413 30.203C269.498 30.406 269.704 30.6197 270.029 30.846C270.355 31.0747 270.795 31.2756 271.343 31.455C271.893 31.6346 272.422 31.7221 272.936 31.7221C273.683 31.7221 274.373 31.5448 275.005 31.1944C275.635 30.8397 276.095 30.3781 276.383 29.8055C276.672 29.2329 276.818 28.6218 276.818 27.9701C276.818 27.4701 276.745 27.0384 276.598 26.6751C276.457 26.3097 276.234 26.0149 275.938 25.7949C275.643 25.5705 275.274 25.4144 274.836 25.3226C274.562 25.2756 274.011 25.2008 273.189 25.0939C272.368 24.9893 271.667 24.8717 271.088 24.7414C270.315 24.5 269.748 24.2157 269.383 23.891C269.021 23.564 268.727 23.1324 268.501 22.6068C268.275 22.0747 268.163 21.5 268.163 20.8888C268.163 19.9957 268.389 19.1517 268.846 18.3589C269.301 17.5683 269.978 16.9508 270.869 16.5106C271.766 16.0726 272.733 15.8525 273.782 15.8525C274.41 15.8525 275.096 15.9402 275.844 16.1111C276.59 16.2821 277.284 16.5341 277.929 16.861C277.826 17.3418 277.751 17.7842 277.705 18.2008C277.663 18.6132 277.627 19.2221 277.609 20.0256H276.852C276.828 18.8567 276.793 18.2222 276.751 18.1132C276.565 17.8418 276.311 17.594 275.994 17.376C275.231 16.9338 274.432 16.7158 273.599 16.7158C272.526 16.7158 271.667 17.0513 271.027 17.72C270.385 18.3931 270.064 19.2627 270.064 20.3269C270.064 20.9743 270.177 21.4701 270.408 21.8227C270.64 22.1731 271.051 22.4572 271.643 22.6687C272.052 22.8119 272.72 22.9465 273.647 23.0705C274.574 23.1965 275.406 23.3311 276.149 23.4743C276.85 23.688 277.361 23.9401 277.694 24.2307C278.028 24.5235 278.302 24.9038 278.518 25.3782C278.734 25.8525 278.843 26.4059 278.843 27.0427C278.843 28.5492 278.23 29.8631 277.007 30.9829C275.78 32.1047 274.198 32.6645 272.255 32.6645C270.786 32.6645 269.456 32.3696 268.261 31.7777Z" fill="#F2F2F2"/>
<path d="M23.434 46.0347C16.6242 46.0347 10.5423 42.7997 6.57278 37.759H16.6367V36.7975C15.041 36.7975 14.0099 36.6564 13.3448 36.1693L16.8439 27.4663L17.0801 26.8808L22.1854 38.5368H22.7856L27.8238 26.9748L28.0352 27.4663L31.5298 36.1928C30.8732 36.6608 29.8568 36.7975 28.2903 36.7975V37.759H40.293C36.3256 42.7997 30.2437 46.0347 23.434 46.0347ZM6.09384 10.7313V11.2484C9.93163 11.2484 10.4859 11.9813 10.4859 16.5604V31.4385C10.4859 36.0176 9.93163 36.7975 6.09384 36.7975V37.133C3.39798 33.4471 1.80222 28.8766 1.80222 23.9343C1.80222 18.9876 3.39798 14.4172 6.09384 10.7313ZM26.8994 24.7654L23.48 32.5839L18.9352 22.2505L22.3924 13.6266L26.8994 24.7654ZM12.3263 34.009C12.2301 33.3252 12.1967 32.4855 12.1967 31.4385V15.7334L16.093 24.6287L12.3263 34.009ZM32.6801 29.3211L29.8568 22.3081L32.6801 15.8274V29.3211ZM23.434 1.8317C30.3253 1.8317 36.4677 5.14367 40.431 10.2868H33.2366L28.9574 20.0689L23.733 7.10308H23.1349L17.9502 20.0069L13.6774 10.2868H6.43476C10.4001 5.14367 16.5447 1.8317 23.434 1.8317ZM40.7741 10.7313C43.4678 14.4172 45.0656 18.9876 45.0656 23.9343C45.0656 28.8766 43.4678 33.4471 40.7741 37.133V36.7975C36.8882 36.7975 36.3339 36.0176 36.3339 31.4385V16.5604C36.3339 11.9813 36.8882 11.2484 40.7741 11.2484V10.7313ZM23.434 0.165039C10.6072 0.165039 0.170898 10.8274 0.170898 23.9343C0.170898 37.039 10.6072 47.6992 23.434 47.6992C36.2587 47.6992 46.6969 37.039 46.6969 23.9343C46.6969 10.8274 36.2587 0.165039 23.434 0.165039Z" fill="#F2F2F2"/>
</g>
<defs>
<clipPath id="clip0_183_8951">
<rect width="279" height="48.0552" fill="white" transform="translate(0.166992)"/>
</clipPath>
</defs>
</svg>
